<?xml version="1.0" standalone="no"?>
<!DOCTYPE svg PUBLIC "-//W3C//DTD SVG 20010904//EN"
 "http://www.w3.org/TR/2001/REC-SVG-20010904/DTD/svg10.dtd">
<svg version="1.0" xmlns="http://www.w3.org/2000/svg"
 width="700.000000pt" height="700.000000pt" viewBox="0 0 700.000000 700.000000"
 preserveAspectRatio="xMidYMid meet">
<metadata>
Created by potrace 1.14, written by Peter Selinger 2001-2017
</metadata>
<g transform="translate(0.000000,700.000000) scale(0.100000,-0.100000)"
fill="#000000" stroke="none">
<path d="M4597 6344 c-1 -1 -42 -5 -92 -8 -123 -9 -137 -12 -256 -40 -140 -33
-232 -67 -370 -136 -358 -179 -627 -468 -777 -836 -42 -104 -82 -235 -89 -294
-2 -19 -6 -41 -9 -49 -12 -35 -19 -160 -18 -326 0 -214 8 -302 39 -407 12 -41
12 -50 0 -62 -8 -8 -56 -63 -106 -122 -50 -60 -94 -111 -98 -114 -3 -3 -24
-27 -46 -55 -21 -27 -46 -57 -55 -65 -8 -8 -32 -36 -53 -62 -21 -26 -43 -53
-50 -60 -7 -7 -37 -42 -67 -78 -30 -36 -57 -67 -60 -70 -3 -3 -57 -66 -120
-140 -63 -74 -127 -148 -141 -165 -15 -16 -84 -97 -154 -180 -225 -264 -286
-336 -295 -345 -3 -3 -30 -34 -60 -70 -30 -36 -61 -72 -70 -81 -8 -9 -33 -38
-55 -65 -22 -27 -54 -64 -71 -84 -17 -19 -42 -48 -55 -64 -13 -15 -33 -38 -44
-50 -11 -13 -41 -47 -66 -77 -73 -85 -196 -228 -259 -299 -31 -36 -90 -103
-131 -150 -99 -114 -123 -141 -197 -219 -34 -36 -73 -89 -88 -117 -43 -87 -31
-200 33 -314 57 -99 383 -389 512 -455 90 -46 73 -55 282 157 123 126 193 205
202 230 14 35 16 167 4 223 -7 31 -20 117 -21 145 -3 39 28 110 64 146 59 61
132 71 287 40 204 -42 280 -23 411 103 130 124 144 195 73 370 -37 88 -43 112
-39 156 2 29 13 62 23 76 63 83 134 86 308 10 142 -62 177 -64 265 -21 95 48
224 188 238 259 7 36 -6 78 -63 199 -50 103 -72 174 -66 212 9 63 112 162 169
163 37 0 64 -5 204 -42 63 -16 127 -32 142 -35 45 -8 97 13 189 75 49 32 94
59 100 59 7 0 40 -11 73 -24 58 -23 192 -62 246 -71 140 -23 444 -36 491 -21
8 3 37 7 64 10 28 3 61 8 75 11 14 2 36 6 50 9 174 30 410 124 572 227 325
207 561 500 681 846 166 476 99 989 -184 1406 -77 113 -92 131 -214 252 -157
157 -346 280 -565 368 -88 35 -301 92 -380 101 -25 3 -68 8 -96 12 -48 5 -212
12 -217 8z m584 -903 c253 -97 362 -394 228 -627 -122 -214 -404 -283 -614
-149 -196 125 -257 386 -138 592 52 90 180 181 285 203 63 13 178 4 239 -19z"/>
</g>
</svg>
